<svg width="640" height="640" viewBox="0 0 640 640" fill="none" xmlns="http://www.w3.org/2000/svg">
<circle cx="320" cy="320" r="320" fill="#FFFBE8"/>
<path d="M320 0C143.22 0 0 143.22 0 320C0 496.78 143.22 640 320 640C496.78 640 640 496.78 640 320C640 143.22 496.78 0 320 0ZM185.62 204.8C205.72 204.8 221.36 219.46 223.12 236.78C225.02 252.4 218.54 266.06 201.26 274.28C192.08 278.86 188.44 278.86 186.56 276.14C185.62 274.28 186.56 272.52 188.42 270.62C204.9 257 204.9 245.96 203 230.44C202.06 220.34 194.78 213.96 187.48 213.96C155.4 213.96 109.78 285.22 116.12 337.4C118.94 357.5 130.82 381.26 156.34 381.26C164.58 381.26 173.76 378.54 181.96 374.92C195.3 367.82 203.32 362.42 211.24 353.56C209.26 329.9 229.98 298.98 260.6 298.98C274.36 298.98 285.3 304.5 286.22 314.6C288 328.26 276.12 330.12 272.48 330.12C268.82 330.12 262.38 329.18 262.38 325.54C261.56 321.88 270.6 323.68 269.76 315.44C268.82 309.92 263.3 308.16 257.9 308.16C238.62 308.16 227.68 334.72 230.4 351.06C231.34 358.44 234.96 365.76 242.38 365.76C247.8 365.76 256.04 357.52 258.72 345.66C260.58 337.42 267.9 331.9 274.34 331.9C277.06 331.9 278.82 332.84 279.76 336.48V340.14C278.94 343.8 276.1 354.84 277.06 357.52C277.06 359.42 278 362.1 281.62 362.1C284.02 362.1 293.2 357.3 302.36 349.8C305.38 334.06 309.02 315.22 309.02 313.66C309.96 307.2 312.68 300.84 325.48 300.84C328.28 300.84 330.06 301.78 331 305.42V309.08L327.34 325.54C339.24 310.02 356.62 299.08 367.56 299.08C372.14 299.08 375.8 301.78 375.8 306.36C375.8 309.08 375.8 313.66 373.9 318.26C370.28 328.26 365.68 343.88 362.96 357.52C362.96 361.18 363.9 364.82 368.48 364.82C373.06 364.82 386.72 359.4 397.66 344.72L397.88 344.62C397.88 342.84 397.66 341.08 397.66 339.32C397.66 328.28 398.6 319.22 400.48 312.76C402.34 305.46 411.42 299.1 416.94 299.1C419.64 299.1 422.46 300.86 422.46 303.58C422.46 304.52 422.46 306.38 421.52 307.24C417.86 319.22 415.04 330.14 415.04 341.08C415.04 347.54 416 356.6 417.86 362.12C417.86 363.06 418.68 363.98 419.62 363.98C421.52 363.98 434.32 352.12 443.38 336.48C435.14 331.06 430.56 321.9 430.56 310.96C430.56 291.7 442.56 281.68 453.5 281.68C462.68 281.68 469.96 288.06 469.96 300.86C469.96 309.1 467.24 318.28 462.68 326.48H465.38C471.22 326.7 476.96 324.3 480.9 320.14C481.84 318.68 483.08 317.64 484.56 317.02C493.52 305.66 506.64 297.24 522.16 297.24C534.96 297.24 546.74 302.76 547.68 312.76C549.54 326.5 537.58 329.22 533.92 329.22C530.3 329.22 523.84 328.28 523.84 324.64C523.84 321 532.06 322.78 531.22 314.64C530.28 309.12 524.76 307.26 519.24 307.26C501 307.26 489.14 331 491.82 350.28C492.76 357.56 496.4 365.8 503.72 365.8C509.24 365.8 517.46 357.56 521.1 345.7C522.86 338.42 530.28 331.94 536.62 331.94C539.42 331.94 541.2 332.88 542.14 336.52C542.14 338.42 542.14 342.04 538.48 353.94C533.9 362.16 533.9 366.74 534.86 370.4C535.68 377.68 539.34 383.2 543.08 385.92C543.9 386.86 544.86 388.62 544.86 388.62C544.86 390.52 543.9 392.38 541.2 392.38C540.26 392.38 539.42 392.38 538.48 391.44C524.74 385.92 519.22 376.74 517.44 367.58C511.92 374.04 505.58 377.68 498.18 377.68C486.28 377.68 474.52 366.74 472.66 352.98C472.12 347.16 472.74 341.22 474.64 335.7C469.22 339.14 463.38 341.12 457.98 341.12H453.5C441.52 358.5 428.7 370.4 419.64 375.82C416.52 377.48 413.08 378.44 409.54 378.62C407.78 378.62 404.98 377.68 404.12 375.82C401.54 371.76 399.96 365.4 398.92 358.12C386.1 372.06 368.38 379.56 360.18 379.56C351 379.56 345.6 374.04 344.66 364.9V354.9C347.36 334.8 354.76 322.82 354.76 319.16C354.66 318.22 353.9 317.38 352.86 317.3C346.52 317.3 325.48 339.28 321.82 353.96L319.02 365.82C317.24 374.04 309.02 379.56 303.5 379.56C300.78 379.56 298.92 378.62 298.08 375V371.34L299.22 365.1C287.64 373.32 276.08 378.62 270.56 378.62C262.34 378.62 257.76 374.04 256.94 367.58C251.42 375 245.04 378.62 236.84 378.62C227.34 378.62 218.2 372.16 213.82 362.8C207.24 370.18 199.84 377.58 191.1 383.2C178.3 391.44 163.72 397.78 146.3 397.78C130.78 397.78 117.04 389.54 109.74 382.26C98.7 372.16 92.36 356.64 91.42 342.04C86 297.26 113.4 239.64 155.36 214.02C165.46 208.5 175.58 204.88 185.58 204.88L185.62 204.8ZM446.14 292.62C443.44 292.62 441.58 297.2 441.58 301.66C441.58 309.08 445.2 317.28 449.8 321.88C451.7 316.9 452.52 311.58 452.62 306.26C452.62 297.22 448.96 292.64 446.14 292.64V292.62Z" fill="#343434"/>
</svg>
