<svg width="640" height="640" viewBox="0 0 640 640" fill="none" xmlns="http://www.w3.org/2000/svg">
<circle cx="320" cy="320" r="320" fill="#343434"/>
<path d="M492.333 427.729V320.125C492.333 314.417 490.066 308.943 486.03 304.907C481.994 300.871 476.52 298.604 470.813 298.604H427.771C422.063 298.604 416.589 300.871 412.553 304.907C408.517 308.943 406.25 314.417 406.25 320.125V427.729C406.25 433.437 408.517 438.911 412.553 442.947C416.589 446.982 422.063 449.25 427.771 449.25H470.813C476.52 449.25 481.994 446.982 486.03 442.947C490.066 438.911 492.333 433.437 492.333 427.729Z" fill="#FFFBE8"/>
<path d="M341.688 449.25C347.395 449.25 352.869 446.983 356.905 442.947C360.941 438.911 363.208 433.437 363.208 427.729V212.521C363.208 206.813 360.941 201.339 356.905 197.303C352.869 193.267 347.395 191 341.688 191H298.646C286.781 191 277.125 200.641 277.125 212.521V427.729C277.125 439.609 286.781 449.25 298.646 449.25H341.688Z" fill="#FFFBE8"/>
<path d="M148 427.729C148 439.609 157.656 449.25 169.521 449.25H212.563C218.27 449.25 223.744 446.983 227.78 442.947C231.816 438.911 234.083 433.437 234.083 427.729V277.083C234.083 271.376 231.816 265.902 227.78 261.866C223.744 257.83 218.27 255.562 212.563 255.562H169.521C157.656 255.562 148 265.204 148 277.083V427.729Z" fill="#FFFBE8"/>
</svg>
