<svg width="640" height="640" viewBox="0 0 640 640" fill="none" xmlns="http://www.w3.org/2000/svg">
<circle cx="320" cy="320" r="320" fill="#343434"/>
<path fill-rule="evenodd" clip-rule="evenodd" d="M267.841 167C257.01 167 246.994 172.762 241.536 182.132L144.148 349.343C138.287 359.408 138.662 371.936 145.115 381.63L196.227 458.418C201.875 466.903 211.383 472 221.565 472H418.435C428.616 472 438.125 466.903 443.773 458.418L494.886 381.63C501.338 371.936 501.713 359.408 495.851 349.343L398.464 182.132C393.007 172.762 382.991 167 372.159 167H267.841ZM286.567 197.5H372.159L460.98 350H381.73L286.567 197.5ZM345.819 350L318.611 306.399L293.217 350H345.819ZM275.454 380.5L239.926 441.5H418.435L459.038 380.5H275.454ZM300.376 277.177L212.555 427.964L170.452 364.712L259.545 211.744L300.376 277.177Z" fill="#FFFBE8"/>
</svg>
