<svg width="640" height="640" viewBox="0 0 640 640" fill="none" xmlns="http://www.w3.org/2000/svg">
<circle cx="320" cy="320" r="320" fill="#343434"/>
<path d="M215.171 290.023C216.156 293.038 216.64 296.239 216.64 299.625C216.624 301.06 216.556 302.494 216.435 303.924H160.685C161.893 299.532 163.51 295.531 165.554 291.94C167.58 288.348 169.995 285.259 172.801 282.691C175.589 280.123 178.711 278.113 182.149 276.718C185.568 275.322 189.266 274.615 193.206 274.615C197.09 274.615 200.491 275.285 203.408 276.625C206.307 277.946 208.76 279.769 210.73 282.058C212.718 284.347 214.187 287.008 215.171 290.023ZM316.339 282.579C314.094 280.107 311.326 278.168 308.237 276.904C304.815 275.516 301.149 274.833 297.458 274.894C292.181 274.894 287.293 276.066 282.778 278.43C278.216 280.833 274.219 284.183 271.052 288.255C267.583 292.769 264.935 297.859 263.228 303.291C261.27 309.483 260.304 315.946 260.366 322.44C260.366 326.776 260.979 330.74 262.224 334.369C263.47 337.997 265.198 341.105 267.428 343.673C269.658 346.241 272.315 348.251 275.437 349.684C278.559 351.117 282.016 351.843 285.844 351.843C291.177 351.843 296.12 350.596 300.673 348.065C305.208 345.553 309.185 342.11 312.548 337.756C316.051 333.127 318.729 327.926 320.465 322.384C322.36 316.504 323.326 310.14 323.326 303.329C323.326 298.937 322.713 294.992 321.505 291.493C320.391 288.208 318.635 285.178 316.339 282.579ZM543 235.163L498.437 445H296.343L307.958 391.927H97L138.385 194H390.691L382.106 235.163H543ZM233.811 301.728C233.925 295.662 232.858 289.632 230.67 283.975C228.754 279.1 225.864 274.667 222.177 270.949C218.633 267.428 214.4 264.679 209.745 262.872C204.949 261.025 199.85 260.091 194.711 260.118C187.265 260.039 179.893 261.602 173.117 264.696C166.593 267.708 160.812 272.124 156.188 277.629C151.486 283.212 147.807 289.893 145.168 297.671C142.455 306.04 141.125 314.796 141.228 323.594C141.228 330.535 142.325 336.676 144.518 342.017C146.443 347.042 149.429 351.592 153.271 355.356C157.113 359.12 161.721 362.01 166.78 363.827C171.854 365.706 177.261 366.637 182.985 366.637C188.95 366.637 194.432 365.911 199.431 364.497C204.093 363.208 208.53 361.212 212.588 358.579C216.379 356.067 219.501 353.089 221.973 349.647C224.403 346.308 226.21 342.557 227.306 338.574H209.875C207.709 342.598 204.432 345.913 200.435 348.121C196.309 350.466 190.827 351.657 184.026 351.657C180.904 351.657 177.838 351.136 174.79 350.075C171.7 349.001 168.883 347.26 166.539 344.976C163.935 342.388 161.903 339.282 160.574 335.857C158.945 331.545 158.169 326.956 158.288 322.347C158.288 321.454 158.306 320.598 158.344 319.779C158.381 318.96 158.418 318.104 158.492 317.211H232.565C232.751 316.262 232.919 315.09 233.049 313.731L233.42 309.526C233.639 306.932 233.769 304.331 233.811 301.728ZM327.396 364.85L357.91 221.058H341.222L328.548 280.923H327.025C326.136 277.873 324.7 275.01 322.788 272.475C320.846 269.907 318.491 267.681 315.819 265.887C313.033 264.024 309.982 262.593 306.769 261.644C303.352 260.613 299.8 260.099 296.232 260.118C286.589 260.085 277.174 263.05 269.286 268.604C265.29 271.415 261.695 274.758 258.601 278.541C255.386 282.412 252.654 286.767 250.35 291.568C247.999 296.567 246.222 301.817 245.053 307.218C243.827 312.857 243.195 318.756 243.195 324.934C243.195 331.298 244.18 337.067 246.15 342.222C248.12 347.376 250.796 351.768 254.215 355.397C257.616 359.026 261.555 361.817 266.09 363.753C270.606 365.706 275.437 366.674 280.585 366.674C287.126 366.674 293.24 365.26 298.889 362.431C304.539 359.603 309.24 355.732 312.994 350.838H314.518L311.563 364.869L327.396 364.85ZM441.052 338.984L507.543 262.221H470.339L429.753 312.54H427.746L406.282 262.221H368.651L400.912 335.318L331.262 417.942H367.982L412.694 364.869H415.704L439.863 417.942H476.806L441.052 338.984Z" fill="#FFFBE8"/>
</svg>
