<svg width="640" height="640" viewBox="0 0 640 640" fill="none" xmlns="http://www.w3.org/2000/svg">
<circle cx="320" cy="320" r="320" fill="#343434"/>
<path fill-rule="evenodd" clip-rule="evenodd" d="M330.922 480H177.662C167.904 480 160 472.091 160 462.337V177.661C160 167.906 167.906 160 177.662 160H462.34C472.093 160 480 167.906 480 177.661V462.337C480 472.092 472.092 480 462.34 480H380.795V356.078H422.39L428.618 307.784H380.795V276.951C380.795 262.969 384.678 253.44 404.729 253.44L430.302 253.429V210.234C425.879 209.645 410.699 208.33 393.037 208.33C356.166 208.33 330.922 230.837 330.922 272.168V307.784H289.221V356.078H330.922V480Z" fill="#FFFBE8"/>
</svg>
