<svg width="640" height="640" viewBox="0 0 640 640" fill="none" xmlns="http://www.w3.org/2000/svg">
<circle cx="320" cy="320" r="320" fill="#343434"/>
<path fill-rule="evenodd" clip-rule="evenodd" d="M320 110C435.983 110 530 206.388 530 325.311C530 420.42 469.898 501.103 386.507 529.6C375.86 531.721 372.08 524.997 372.08 519.264C372.08 512.166 372.332 488.982 372.332 460.17C372.332 440.095 365.612 426.992 358.073 420.314C404.84 414.98 453.98 396.771 453.98 314.073C453.98 290.553 445.832 271.36 432.35 256.282C434.534 250.843 441.737 228.943 430.292 199.291C430.292 199.291 412.694 193.522 372.605 221.368C355.826 216.601 337.85 214.202 320 214.118C302.15 214.202 284.195 216.601 267.437 221.368C227.306 193.522 209.666 199.291 209.666 199.291C198.263 228.943 205.466 250.843 207.629 256.282C194.21 271.36 185.999 290.553 185.999 314.073C185.999 396.561 235.034 415.049 281.675 420.488C275.669 425.864 270.23 435.348 268.34 449.271C256.37 454.773 225.962 464.295 207.23 431.388C207.23 431.388 196.121 410.7 175.037 409.188C175.037 409.188 154.562 408.916 173.609 422.272C173.609 422.272 187.364 428.887 196.919 453.772C196.919 453.772 209.246 492.201 267.668 479.181C267.773 497.178 267.962 514.14 267.962 519.264C267.962 524.955 264.098 531.615 253.619 529.62C170.165 501.165 110 420.441 110 325.311C110 206.388 204.038 110 320 110Z" fill="#FFFBE8"/>
</svg>
