<svg width="640" height="640" viewBox="0 0 640 640" fill="none" xmlns="http://www.w3.org/2000/svg">
<circle cx="320" cy="320" r="320" fill="#343434"/>
<path d="M490.299 188H149.7C142.141 188 136 194.134 136 201.699V437.299C136 444.866 142.141 451 149.7 451H490.299C497.86 451 504 444.866 504 437.299V201.699C504 194.134 497.86 188 490.299 188ZM477.996 417.379C477.996 423.665 472.791 428.759 466.373 428.759H447.28V249.052L328.612 326.08C326.002 327.775 323 328.618 320 328.618C317 328.618 313.996 327.775 311.388 326.08L192.721 249.052V428.759H173.628C167.211 428.759 162.004 423.665 162.004 417.379V221.619C162.004 215.333 167.209 210.239 173.628 210.239H189.373L320.002 295.03L450.63 210.239H466.376C472.792 210.239 477.999 215.333 477.999 221.619V417.379H477.996Z" fill="#FFFBE8"/>
</svg>
