<svg width="640" height="640" viewBox="0 0 640 640" fill="none" xmlns="http://www.w3.org/2000/svg">
<circle cx="320" cy="320" r="320" fill="#343434"/>
<path d="M472.575 295.858L470.807 288.99H324.676V351.002H412.08C407.203 369.926 396.115 386.668 380.589 398.55C365.065 410.432 345.999 416.769 326.444 416.547C300.926 416.337 276.409 406.608 257.7 389.27C248.503 380.213 241.184 369.432 236.162 357.545C231.14 345.659 228.514 332.899 228.434 319.996C228.731 294.082 239 269.276 257.111 250.723C275.556 233.265 300.054 223.628 325.462 223.838C347.223 224.005 368.174 232.1 384.386 246.602L427.596 202.251C399.117 176.865 362.254 162.887 324.087 163.003C303.091 162.878 282.277 166.887 262.832 174.8C243.386 182.712 225.691 194.374 210.757 209.12C182.35 238.601 166.334 277.84 166.005 318.762C165.676 359.684 181.06 399.174 208.99 429.107C224.464 444.51 242.855 456.679 263.09 464.899C283.324 473.122 304.994 477.231 326.837 476.99C346.643 477.137 366.275 473.265 384.541 465.608C402.805 457.951 419.324 446.669 433.096 432.443C460.12 402.754 474.739 363.85 473.95 323.725C474.162 314.415 473.702 305.103 472.575 295.858Z" fill="#FFFBE8"/>
</svg>
