<svg width="828" height="828" viewBox="0 0 828 828" fill="none" xmlns="http://www.w3.org/2000/svg">
<circle cx="413.929" cy="413.929" r="413.929" fill="white"/>
<path d="M405.203 136.905C407.107 128.628 418.893 128.628 420.797 136.905L456.322 291.393C457.554 296.753 463.702 299.299 468.364 296.381L602.71 212.264C609.908 207.757 618.243 216.092 613.736 223.29L529.619 357.636C526.701 362.298 529.247 368.446 534.607 369.678L689.095 405.203C697.372 407.107 697.372 418.893 689.095 420.796L534.607 456.322C529.247 457.554 526.701 463.702 529.619 468.364L613.736 602.71C618.243 609.908 609.908 618.243 602.71 613.736L468.364 529.619C463.702 526.701 457.554 529.247 456.322 534.607L420.797 689.095C418.893 697.372 407.107 697.372 405.203 689.095L369.678 534.607C368.446 529.247 362.298 526.701 357.636 529.619L223.29 613.736C216.092 618.243 207.757 609.908 212.264 602.71L296.381 468.364C299.299 463.702 296.753 457.554 291.393 456.322L136.905 420.796C128.628 418.893 128.628 407.107 136.905 405.203L291.393 369.678C296.753 368.446 299.299 362.298 296.381 357.636L212.264 223.29C207.757 216.092 216.092 207.757 223.29 212.264L357.636 296.381C362.298 299.299 368.446 296.753 369.678 291.393L405.203 136.905Z" fill="black"/>
<circle cx="414.5" cy="414.5" r="344.5" stroke="black" stroke-width="4" stroke-linecap="round" stroke-linejoin="round" stroke-dasharray="10 20 30 40"/>
</svg>
