<svg width="640" height="640" viewBox="0 0 640 640" fill="none" xmlns="http://www.w3.org/2000/svg">
<circle cx="320" cy="320" r="320" fill="#343434"/>
<path d="M379.789 406.496L340.466 444.486C333.64 451.322 324.233 454.166 313.864 454.166C303.494 454.166 294.098 451.322 287.262 444.486L224.082 380.911C217.3 374.074 213.833 364.098 213.833 353.728C213.833 343.315 217.3 333.908 224.082 327.126L287.087 263.201C293.868 256.43 303.494 253.805 313.864 253.805C324.233 253.805 333.64 256.649 340.466 263.485L379.789 301.475C387.303 309.001 399.729 308.727 407.528 300.906C415.273 293.107 415.568 280.692 408.042 273.166L370.054 234.76C360.198 225.014 347.827 218.298 334.384 215.213L370.338 178.755C377.864 171.24 377.634 158.814 369.824 151.015C362.014 143.216 349.599 142.975 342.084 150.446L194.756 297.778C180.46 312.129 173 331.829 173 353.706C173 375.54 180.471 395.929 194.756 410.237L258.166 473.812C272.462 488.109 292.239 495 314.115 495C335.937 495 355.692 487.529 369.999 473.243L408.053 434.728C415.579 427.257 415.284 414.853 407.485 407.043C399.686 399.233 387.26 398.948 379.8 406.474L379.789 406.496ZM448.481 334.761H300.475C290.281 334.761 281.967 343.523 281.967 354.352C281.967 365.192 290.281 374.008 300.475 374.008H448.481C458.687 374.008 467 365.181 467 354.352C467 343.534 458.687 334.761 448.481 334.761Z" fill="#FFFBE8"/>
</svg>
