<svg width="640" height="640" viewBox="0 0 640 640" fill="none" xmlns="http://www.w3.org/2000/svg">
<circle cx="320" cy="320" r="320" fill="#343434"/>
<path d="M448.656 169H191.283C191.203 169 191.112 169 191.012 169C178.938 169 169.141 178.707 169 190.74V449.24C169.141 461.283 178.938 471 191.012 471C191.112 471 191.203 471 191.304 471H448.626C448.706 471 448.807 471 448.908 471C460.991 471 470.809 461.303 471 449.26V449.24V190.76C470.809 178.707 460.991 169 448.898 169C448.797 169 448.706 169 448.606 169H448.656ZM258.567 426.352H213.718V282.25H258.567V426.352ZM236.152 262.534C221.804 262.534 210.184 250.904 210.184 236.565C210.184 222.227 221.814 210.596 236.152 210.596C250.491 210.596 262.121 222.217 262.121 236.555C262.121 236.565 262.121 236.575 262.121 236.596C262.121 250.924 250.501 262.544 236.173 262.544C236.163 262.544 236.153 262.544 236.142 262.544L236.152 262.534ZM426.282 426.352H381.564V356.28C381.564 339.565 381.222 318.067 358.264 318.067C334.943 318.067 331.388 336.252 331.388 355.051V426.363H286.67V282.26H329.626V301.905H330.21C338.548 287.859 353.632 278.595 370.88 278.595C371.495 278.595 372.099 278.605 372.703 278.625H372.612C417.924 278.625 426.302 308.45 426.302 347.268V426.363L426.282 426.352Z" fill="#FFFBE8"/>
</svg>
