<svg width="640" height="640" viewBox="0 0 640 640" fill="none" xmlns="http://www.w3.org/2000/svg">
<circle cx="320" cy="320" r="320" fill="#343434"/>
<path fill-rule="evenodd" clip-rule="evenodd" d="M398.43 192.067C398.184 193.626 398.056 195.226 398.056 196.857C398.056 213.319 411.077 226.664 427.139 226.664C443.201 226.664 456.222 213.319 456.222 196.857C456.222 180.394 443.201 167.049 427.139 167.049C419.982 167.049 413.429 169.699 408.361 174.093L332.835 155L305.538 266.911C269.224 269.361 236.566 280.631 211.928 297.647C204.933 290.616 195.349 286.28 184.778 286.28C163.361 286.28 146 304.075 146 326.023C146 341.301 154.408 354.563 166.74 361.215C165.849 365.955 165.389 370.793 165.389 375.704C165.389 436.067 234.834 485 320.5 485C406.166 485 475.611 436.067 475.611 375.704C475.611 370.793 475.152 365.955 474.26 361.215C486.591 354.563 495 341.301 495 326.023C495 304.075 477.639 286.28 456.222 286.28C445.651 286.28 436.067 290.616 429.072 297.647C402.23 279.109 365.868 267.388 325.632 266.468L346.943 179.098L398.43 192.067ZM252.639 385.641C268.701 385.641 281.722 372.295 281.722 355.832C281.722 339.369 268.701 326.023 252.639 326.023C236.577 326.023 223.556 339.369 223.556 355.832C223.556 372.295 236.577 385.641 252.639 385.641ZM388.361 385.641C404.423 385.641 417.444 372.295 417.444 355.832C417.444 339.369 404.423 326.023 388.361 326.023C372.299 326.023 359.278 339.369 359.278 355.832C359.278 372.295 372.299 385.641 388.361 385.641ZM258.015 417.117C253.562 414.073 247.543 415.306 244.573 419.872C241.603 424.439 242.807 430.608 247.26 433.652C268.357 448.065 294.43 455.273 320.5 455.273C346.57 455.273 372.643 448.065 393.738 433.652C398.193 430.608 399.397 424.439 396.427 419.872C393.457 415.306 387.438 414.073 382.983 417.117C365.143 429.306 342.822 435.401 320.5 435.401C307.263 435.401 294.024 433.258 281.722 428.972C273.28 426.029 265.277 422.077 258.015 417.117Z" fill="#FFFBE8"/>
</svg>
