<svg width="640" height="640" viewBox="0 0 640 640" fill="none" xmlns="http://www.w3.org/2000/svg">
<circle cx="320" cy="320" r="320" fill="#343434"/>
<path d="M390.417 408.587C380.572 399.345 374.421 386.215 374.419 371.646V300.045H395.097V382.305L395.101 382.486C395.317 391.706 393.637 400.531 390.417 408.587Z" fill="#FFFBE8"/>
<path d="M308.026 261.661V256.511H301.7C303.653 258.403 305.77 260.127 308.026 261.661Z" fill="#FFFBE8"/>
<path d="M251.052 384.939C251.042 384.004 251.048 383.065 251.07 382.123V365.412H258.447V295.212H285.747V284.445H308.026V384.939H251.052Z" fill="#FFFBE8"/>
<path d="M257.589 416.139H310.325C326.287 416.139 339.226 403.2 339.226 387.24V284.445H397.398C404.92 284.631 410.872 290.875 410.697 298.398V382.123C411.749 427.271 376.029 464.736 330.884 465.84C297.808 465.031 269.792 444.705 257.589 416.139Z" fill="#FFFBE8"/>
<path d="M436.094 272.743C454.126 272.743 468.745 258.124 468.745 240.092C468.745 222.059 454.126 207.44 436.094 207.44C418.061 207.44 403.443 222.059 403.443 240.092C403.443 258.124 418.061 272.743 436.094 272.743Z" fill="#FFFBE8"/>
<path d="M418.683 424.712C420.782 424.978 422.921 425.113 425.094 425.113H425.333C453.316 425.113 476 402.429 476 374.446V301.039C476 293.426 469.829 287.253 462.214 287.253H422.932C425.155 291.46 426.38 296.268 426.297 301.354V384.758C426.601 398.923 423.863 412.449 418.683 424.712Z" fill="#FFFBE8"/>
<path d="M339.226 269.093C363.06 266.727 381.674 246.619 381.674 222.163C381.674 196.116 360.557 175 334.51 175C308.463 175 287.347 196.116 287.347 222.163C287.347 223.062 287.373 223.956 287.422 224.843H310.325C326.287 224.843 339.226 237.782 339.226 253.743V269.093Z" fill="#FFFBE8"/>
<path fill-rule="evenodd" clip-rule="evenodd" d="M310.328 240.443H177.3C169.955 240.443 164 246.397 164 253.743V386.771C164 394.116 169.955 400.07 177.3 400.07H310.328C317.673 400.07 323.627 394.116 323.627 386.771V253.743C323.627 246.397 317.673 240.443 310.328 240.443ZM207.747 294.744H235.047V364.944H250.647V294.744H277.947V279.144H207.747V294.744Z" fill="#FFFBE8"/>
</svg>
