<svg width="640" height="640" viewBox="0 0 640 640" fill="none" xmlns="http://www.w3.org/2000/svg">
<circle cx="320" cy="320" r="320" fill="#343434"/>
<path d="M326.101 180.233C341.304 180 356.395 180.121 371.477 180C371.979 198.897 379.631 215.905 391.807 228.504L391.788 228.485C404.892 240.311 421.943 247.978 440.74 249.28L441 249.299V296.155C423.243 295.709 406.545 291.606 391.491 284.553L392.252 284.869C384.971 281.362 378.814 277.761 372.963 273.741L373.446 274.058C373.335 308.009 373.557 341.961 373.214 375.791C372.257 393.032 366.536 408.757 357.361 421.885L357.547 421.597C342.204 443.611 317.352 458.06 289.092 458.916H288.962C287.819 458.972 286.473 459 285.117 459C269.05 459 254.033 454.515 241.236 446.728L241.607 446.942C218.315 432.901 202.249 408.878 199.277 380.937L199.24 380.555C199.007 374.74 198.896 368.925 199.128 363.23C203.679 318.765 240.864 284.367 286.064 284.367C291.144 284.367 296.122 284.804 300.961 285.632L300.441 285.558C300.673 302.761 299.976 319.975 299.976 337.178C296.048 335.755 291.516 334.927 286.789 334.927C269.44 334.927 254.683 346.036 249.222 361.546L249.139 361.825C247.904 365.798 247.189 370.367 247.189 375.093C247.189 377.01 247.309 378.908 247.532 380.769L247.514 380.546C250.597 399.582 266.886 413.948 286.529 413.948C287.095 413.948 287.652 413.939 288.209 413.911H288.126C301.713 413.502 313.507 406.179 320.175 395.358L320.268 395.191C322.748 391.73 324.448 387.543 325.014 382.993L325.023 382.863C326.184 362.049 325.72 341.356 325.831 320.542C325.943 273.685 325.72 226.94 326.063 180.205L326.101 180.233Z" fill="#FFFBE8"/>
</svg>
