<svg width="566" height="566" viewBox="0 0 566 566" fill="none" xmlns="http://www.w3.org/2000/svg">
<path d="M275.203 6.90465C277.107 -1.37157 288.893 -1.37153 290.797 6.90468L326.322 161.393C327.554 166.753 333.702 169.299 338.364 166.381L472.71 82.2641C479.908 77.7573 488.243 86.0921 483.736 93.2901L399.619 227.636C396.701 232.298 399.247 238.446 404.607 239.678L559.095 275.203C567.372 277.107 567.372 288.893 559.095 290.796L404.607 326.322C399.247 327.554 396.701 333.702 399.619 338.364L483.736 472.71C488.243 479.908 479.908 488.243 472.71 483.736L338.364 399.619C333.702 396.701 327.554 399.247 326.322 404.607L290.797 559.095C288.893 567.372 277.107 567.372 275.203 559.095L239.678 404.607C238.446 399.247 232.298 396.701 227.636 399.619L93.2901 483.736C86.0921 488.243 77.7573 479.908 82.2641 472.71L166.381 338.364C169.299 333.702 166.753 327.554 161.393 326.322L6.90465 290.796C-1.37156 288.893 -1.37153 277.107 6.90468 275.203L161.393 239.678C166.753 238.446 169.299 232.298 166.381 227.636L82.2641 93.2901C77.7573 86.0921 86.0921 77.7573 93.2901 82.2641L227.636 166.381C232.298 169.299 238.446 166.753 239.678 161.393L275.203 6.90465Z" fill="black"/>
</svg>
