<svg width="640" height="640" viewBox="0 0 640 640" fill="none" xmlns="http://www.w3.org/2000/svg">
<circle cx="320" cy="320" r="320" fill="#343434"/>
<path d="M395.096 353.309C390.884 351.314 370.71 341.338 366.941 339.786C363.172 338.234 360.512 337.791 357.63 342.003C354.747 346.215 346.988 355.305 344.55 358.187C342.111 361.069 339.894 361.29 335.682 358.187C323.583 353.331 312.41 346.432 302.649 337.791C293.814 329.472 286.333 319.822 280.48 309.192C278.041 305.201 280.48 302.985 282.253 300.768C284.027 298.551 286.244 296.112 288.461 293.673C290.082 291.564 291.423 289.254 292.451 286.801C293.001 285.66 293.287 284.409 293.287 283.143C293.287 281.876 293.001 280.626 292.451 279.485C292.451 277.49 283.14 257.315 279.593 249.113C276.046 240.91 272.942 242.018 270.503 242.018H261.636C257.411 242.183 253.425 244.017 250.551 247.117C245.912 251.544 242.238 256.881 239.758 262.794C237.278 268.707 236.047 275.069 236.141 281.48C237.275 297.22 243.062 312.268 252.768 324.711C270.578 351.168 294.945 372.556 323.489 386.785C333.243 390.997 340.781 393.436 346.766 395.431C355.172 397.972 364.056 398.503 372.705 396.983C378.449 395.818 383.892 393.485 388.697 390.129C393.502 386.773 397.567 382.466 400.638 377.474C403.195 371.31 404.037 364.569 403.077 357.965C401.968 356.413 399.308 355.305 395.096 353.309Z" fill="#FFFBE8"/>
<path d="M436.553 202.335C421.221 186.858 402.945 174.608 382.803 166.308C362.661 158.007 341.06 153.824 319.276 154.006C290.418 154.157 262.104 161.877 237.163 176.394C212.222 190.912 191.527 211.719 177.144 236.738C162.761 261.757 155.194 290.112 155.198 318.97C155.203 347.829 162.779 376.181 177.169 401.195L155 486.548L242.348 464.378C266.496 477.518 293.558 484.379 321.049 484.331H319.276C352.041 484.544 384.126 474.995 411.442 456.9C438.757 438.804 460.065 412.984 472.646 382.73C485.228 352.477 488.514 319.162 482.086 287.033C475.658 254.905 459.806 225.419 436.553 202.335ZM319.276 455.954C294.68 455.974 270.541 449.307 249.442 436.667L244.565 433.785L192.688 447.308L206.433 396.762L203.329 391.663C185.624 363.149 179.001 329.128 184.717 296.055C190.433 262.982 208.091 233.157 234.339 212.24C260.588 191.323 293.602 180.769 327.116 182.58C360.631 184.392 392.315 198.442 416.157 222.066C428.938 234.745 439.069 249.84 445.958 266.473C452.847 283.106 456.357 300.944 456.283 318.947C456.225 355.265 441.771 390.08 416.09 415.761C390.409 441.442 355.595 455.895 319.276 455.954Z" fill="#FFFBE8"/>
</svg>
