<svg width="640" height="640" viewBox="0 0 640 640" fill="none" xmlns="http://www.w3.org/2000/svg">
<circle cx="320" cy="320" r="320" fill="#343434"/>
<path fill-rule="evenodd" clip-rule="evenodd" d="M284.657 364.388V266.983C319.236 283.254 346.017 298.972 377.691 315.918C351.567 330.406 319.236 346.663 284.657 364.388ZM477.365 218.538C471.401 210.68 461.235 204.563 450.411 202.537C418.599 196.496 220.132 196.479 188.337 202.537C179.657 204.164 171.929 208.097 165.29 214.208C137.315 240.172 146.081 379.412 152.824 401.967C155.659 411.729 159.325 418.77 163.941 423.392C169.889 429.502 178.032 433.709 187.386 435.596C213.579 441.014 348.524 444.043 449.858 436.41C459.194 434.783 467.458 430.44 473.976 424.07C499.842 398.209 498.078 251.15 477.365 218.538Z" fill="#FFFBE8"/>
</svg>
