<svg width="640" height="640" viewBox="0 0 640 640" fill="none" xmlns="http://www.w3.org/2000/svg">
<circle cx="320" cy="320" r="320" fill="#343434"/>
<path fill-rule="evenodd" clip-rule="evenodd" d="M344.573 305.089C344.573 322.308 344.983 336.662 336.304 351.961C329.295 364.405 318.14 372.043 305.748 372.043C288.816 372.043 278.905 359.136 278.905 340.002C278.905 302.37 312.636 295.528 344.573 295.528V305.089ZM389.088 412.823C386.16 415.443 381.942 415.625 378.649 413.849C363.978 401.654 361.353 396.013 353.342 384.404C329.113 409.111 311.945 416.521 280.558 416.521C243.386 416.521 214.483 393.569 214.483 347.655C214.483 311.784 233.888 287.397 261.559 275.437C285.512 264.914 318.97 263.005 344.573 260.131V254.391C344.573 243.876 345.392 231.435 339.201 222.35C333.831 214.218 323.506 210.874 314.426 210.874C297.589 210.874 282.614 219.506 278.942 237.402C278.172 241.389 275.274 245.325 271.265 245.531L228.48 240.891C224.869 240.079 220.848 237.174 221.895 231.655C231.723 179.699 278.605 164 320.616 164C342.092 164 370.176 169.74 387.108 186C408.584 206.09 406.521 232.873 406.521 262.048V330.884C406.521 351.589 415.108 360.677 423.18 371.846C426.002 375.855 426.639 380.638 423.043 383.569C414.023 391.138 397.994 405.071 389.178 412.922L389.088 412.823ZM449.587 425.071C408.592 442.474 364.039 450.886 323.514 450.886C263.425 450.886 205.259 434.395 158.225 406.993C154.106 404.593 151.056 408.822 154.478 411.92C198.076 451.326 255.688 475 319.669 475C365.322 475 418.333 460.627 454.905 433.62C460.951 429.141 455.77 422.444 449.587 425.071ZM460.504 457.962C459.168 461.303 462.036 462.654 465.055 460.119C484.673 443.688 489.741 409.278 485.72 404.305C481.737 399.378 447.44 395.133 426.502 409.84C423.286 412.118 423.847 415.231 427.413 414.806C439.202 413.386 465.442 410.235 470.123 416.234C474.796 422.231 464.919 446.922 460.504 457.962Z" fill="#FFFBE8"/>
</svg>
