<svg width="640" height="640" viewBox="0 0 640 640" fill="none" xmlns="http://www.w3.org/2000/svg">
<circle cx="320" cy="320" r="320" fill="#343434"/>
<path d="M302.022 150.065C264.826 150.065 231.781 173.98 220.265 209.297L216.114 233.55V313.935C216.114 317.955 218.18 321.524 221.637 323.591L286.354 360.884V250.42H286.373V245.178L351.88 207.344C358.213 203.677 365.112 201.171 372.257 199.862L365.95 178.47C349.682 160.285 326.406 149.953 302.022 150.065ZM302.022 172.139L301.909 172.252C316.881 172.252 331.271 177.418 342.787 186.98C342.318 187.205 341.397 187.787 340.721 188.126L272.998 227.125C269.541 229.079 267.474 232.761 267.474 236.781V328.325L238.338 311.53V235.861C238.319 200.712 266.817 172.195 302.022 172.139Z" fill="#FFFBE8"/>
<path d="M458.067 219.399C439.469 187.186 402.236 170.526 365.893 178.212L342.813 186.743L273.198 226.935C269.716 228.945 267.659 232.52 267.597 236.546L267.659 311.24L363.324 256.008L363.333 256.024L367.873 253.403L433.392 291.216C439.734 294.868 445.354 299.59 450.06 305.122L465.433 288.965C473.047 265.783 470.357 240.46 458.067 219.399ZM438.951 230.436L438.797 230.394C446.283 243.361 449.004 258.406 446.481 273.16C446.051 272.866 445.087 272.36 444.456 271.943L376.819 232.793C373.399 230.776 369.177 230.828 365.696 232.838L286.416 278.61L286.392 244.979L351.924 207.144C382.354 189.554 421.3 199.976 438.951 230.436Z" fill="#FFFBE8"/>
<path d="M476.045 389.205C494.643 356.992 490.455 316.417 465.627 288.786L446.699 273.064L377.084 232.871C373.602 230.861 369.478 230.866 365.96 232.827L301.305 270.227L396.97 325.459L396.96 325.475L401.499 328.096L401.512 403.744C401.521 411.062 400.241 418.29 397.803 425.132L419.482 430.366C443.365 425.37 463.951 410.378 476.045 389.205ZM456.929 378.168L456.888 378.014C449.402 390.98 437.733 400.859 423.694 406.051C423.733 405.532 423.689 404.444 423.735 403.689L423.822 325.539C423.858 321.569 421.702 317.938 418.221 315.928L338.942 270.156L368.055 253.32L433.586 291.155C464.035 308.713 474.483 347.652 456.929 378.168Z" fill="#FFFBE8"/>
<path d="M337.978 489.677C375.174 489.677 408.219 465.763 419.735 430.445L423.886 406.193V325.808C423.886 321.788 421.82 318.218 418.363 316.152L353.646 278.859V389.323H353.627V394.564L288.12 432.399C281.787 436.066 274.888 438.572 267.743 439.881L274.05 461.273C290.318 479.458 313.594 489.79 337.978 489.677ZM337.978 467.604L338.091 467.491C323.119 467.491 308.729 462.325 297.213 452.763C297.682 452.538 298.603 451.955 299.279 451.617L367.002 412.618C370.459 410.664 372.526 406.982 372.526 402.962V311.418L401.662 328.212V403.882C401.681 439.03 373.183 467.548 337.978 467.604Z" fill="#FFFBE8"/>
<path d="M181.933 420.344C200.531 452.556 237.764 469.217 274.108 461.531L297.187 453L366.802 412.807C370.284 410.797 372.342 407.223 372.403 403.196L372.341 328.503L276.676 383.735L276.667 383.719L272.128 386.339L206.609 348.526C200.266 344.875 194.647 340.153 189.94 334.62L174.568 350.778C166.953 373.959 169.643 399.283 181.933 420.344ZM201.049 409.307L201.203 409.348C193.717 396.382 190.996 381.337 193.519 366.583C193.949 366.877 194.914 367.383 195.545 367.799L263.181 406.95C266.601 408.966 270.823 408.915 274.305 406.905L353.584 361.133L353.608 394.763L288.076 432.598C257.646 450.189 218.7 439.767 201.049 409.307Z" fill="#FFFBE8"/>
<path d="M163.955 250.538C145.357 282.75 149.545 323.325 174.373 350.957L193.301 366.678L262.916 406.871C266.398 408.881 270.522 408.876 274.04 406.916L338.695 369.515L243.03 314.283L243.04 314.267L238.501 311.646L238.488 235.999C238.479 228.68 239.759 221.452 242.197 214.61L220.518 209.376C196.635 214.373 176.049 229.364 163.955 250.538ZM183.071 261.574L183.112 261.728C190.598 248.762 202.267 238.883 216.306 233.691C216.267 234.21 216.311 235.299 216.265 236.053L216.178 314.203C216.142 318.174 218.298 321.804 221.779 323.814L301.058 369.586L271.945 386.422L206.414 348.587C175.965 331.029 165.517 292.09 183.071 261.574Z" fill="#FFFBE8"/>
</svg>
