<svg width="640" height="640" viewBox="0 0 640 640" fill="none" xmlns="http://www.w3.org/2000/svg">
<circle cx="320" cy="320" r="320" fill="#343434"/>
<path d="M306.253 148.012C294.97 148.456 284.533 153.315 274.397 157.83C265.777 161.907 256.84 165.277 247.673 167.906C238.57 170.428 229.036 172.979 221.667 179.2C218.484 181.78 216.563 185.492 214.083 188.688C209.652 195.654 207.66 203.981 207.531 212.165C208.047 220.908 210.627 229.364 212.921 237.763C218.197 255.851 224.491 273.637 230.082 291.639C235.329 308.279 240.161 325.235 248.634 340.599C251.458 346.246 253.652 352.18 256.304 357.885C256.691 358.845 257.05 360.149 258.34 360.02C260.29 359.848 261.824 358.372 263.616 357.67C275.487 351.736 288.562 348.468 301.68 346.934C311.83 345.874 322.181 345.816 332.231 347.708C342.554 350.045 352.546 353.814 362.223 358.085C367.385 360.55 372.531 363.073 377.822 365.223C378.51 365.796 379.757 366.054 380.116 364.993C383.255 360.307 386.84 355.892 389.678 351.005C396.775 335.798 397.162 318.341 404.56 303.263C409.692 292.929 417.348 284.1 422.71 273.91C425.219 270.097 428.889 267.216 431.14 263.203C437.405 253.615 442.322 243.166 446.193 232.388C447.656 228.189 448.659 223.616 447.484 219.216C446.623 214.931 444.588 211.047 442.925 207.062C442.061 203.733 440.718 200.547 438.939 197.603C433.104 187.914 423.599 181.135 413.95 175.588C398.968 167.132 382.467 161.7 365.908 157.242C348.341 152.58 330.383 149.538 312.26 148.155C310.256 148.023 308.247 147.975 306.239 148.012H306.253ZM293.508 156.697C289.766 159.894 288.304 164.853 286.798 169.353C284.39 177.494 283.028 186.022 283.83 194.521C284.748 209.742 286.655 224.906 288.562 240.027C291.142 259.405 294.11 278.725 298.267 297.845C298.64 300.21 299.185 302.819 298.984 305.155C297.336 302.647 296.375 299.665 295.285 296.842C291.701 285.877 289.092 274.641 286.626 263.39C282.215 243.026 279.52 222.329 278.569 201.516C278.21 189.433 278.512 176.777 283.873 165.67C285.565 162.43 287.587 159.077 290.755 157.113C291.712 156.595 292.794 156.352 293.88 156.411L293.508 156.697ZM241.867 173.381C243.702 173.381 243.86 175.659 244.276 176.992C248.089 188.43 250.326 200.326 254.01 211.792C256.505 221.094 257.422 230.754 258.426 240.328C259.817 255.22 259.974 270.212 261.953 285.046C262.325 287.898 263.128 290.679 263.659 293.502C263.802 294.463 262.813 294.205 262.469 293.703C260.347 291.395 259.845 288.099 258.942 285.218C256.648 275.974 255.473 266.514 254.154 257.097C251.659 238.236 250.039 219.259 246.569 200.555C244.304 191.784 241.466 183.141 239.975 174.212C240.061 173.481 241.308 173.524 241.867 173.381ZM214.24 199.71C217.523 200.512 219.473 203.551 221.581 205.93C227.315 213.598 229.322 223.186 231.545 232.345C235.602 250.476 237.939 268.936 241.939 287.096C243.817 296.641 246.139 306.101 249.207 315.345C249.408 316.076 249.709 317.252 249.752 317.782C246.412 311.619 244.118 304.94 241.652 298.39C233.079 274.053 229.853 248.283 223.014 223.459C221.107 216.608 218.599 209.843 214.47 203.995C213.796 202.734 213.323 201.071 213.939 199.738C214.025 199.681 214.14 199.695 214.226 199.71H214.24ZM395.542 388.843C393.592 388.943 391.097 390.42 391.585 392.67C392.933 395.794 396.373 397.084 399.126 398.632C405.449 401.728 412.574 402.789 418.595 406.458C419.914 407.318 420.731 409.281 419.513 410.571C416.932 414.384 412.775 416.878 409.147 419.658C403.814 423.471 398.008 426.968 393.994 432.257C393.047 433.79 393.406 436.083 395.169 436.843C396.732 437.975 398.653 437.101 400.015 436.112C407.441 431.898 414.28 426.738 421.205 421.751C425.792 418.325 430.437 414.914 434.48 410.858C435.699 408.923 434.05 406.931 432.789 405.54C428.875 401.456 423.9 398.56 418.954 395.938C412.398 392.499 405.345 390.105 398.051 388.843C397.216 388.784 396.377 388.784 395.542 388.843ZM233.896 389.23C226.34 391.151 219.602 395.25 212.764 398.876C206.67 402.359 200.52 405.985 195.488 410.93C193.801 412.86 192.919 415.363 193.022 417.924C193.954 419.472 195.889 419.93 197.337 420.876C209.552 427.211 222.211 432.658 235.043 437.617C236.935 438.219 238.842 439.236 240.863 439.15C243.129 438.864 245.293 436.227 243.917 434.048C241.824 430.565 237.896 428.874 234.598 426.796C226.756 422.453 218.054 419.457 211.143 413.638C210.484 412.334 212.491 411.804 213.179 411.059C221.05 405.397 230.799 402.559 237.738 395.622C239.014 394.332 240.089 391.91 238.426 390.491C237.193 389.445 235.473 389.244 233.896 389.23ZM350.238 400.596C344.073 400.983 338.267 406.773 339.141 413.151C339.6 416.863 340.417 420.676 342.41 423.886C344.131 426.466 347.141 427.985 350.238 428C354.152 428.444 358.697 427.154 360.646 423.442C362.611 420.045 363.686 416.075 363.585 412.162C363.041 405.569 356.905 400.051 350.252 400.596H350.238ZM285.866 400.739C279.214 401.14 274.297 407.977 274.827 414.398C274.985 420.762 279.343 427.326 285.795 428.645C290.841 429.505 295.974 425.921 297.307 421.048C299.099 416.032 299.199 410.141 296.676 405.354C294.425 401.771 289.823 400.667 285.866 400.739ZM287.472 410.098C290.927 411.016 291.687 416.835 288.117 418.096C286.096 418.583 284.691 416.376 284.762 414.599C284.648 412.778 285.479 410.485 287.472 410.098ZM351.084 412.148C352.474 412.148 354.324 413.165 353.808 414.828C353.621 417.279 350.725 419.601 348.403 418.067C346.51 417.064 345.937 413.825 348.116 412.793C349.034 412.327 350.056 412.105 351.084 412.148ZM300.647 454.816C292.719 455.547 285.68 459.617 278.54 462.828C274.182 465.064 269.049 467.3 264.132 465.508C258.727 463.788 253.996 460.492 248.949 458.055C247.874 457.869 248.075 459.159 248.275 459.804C249.437 467.4 250.125 475.598 254.784 482.019C259.63 488.283 267.716 490.877 275.329 491.579C286.755 492.611 298.87 489.888 307.887 482.564C312.317 478.809 316.074 473.52 316.274 467.529C316.188 462.885 312.776 458.987 308.762 457.009C306.31 455.547 303.502 454.789 300.647 454.816ZM337.636 454.931C331.959 455.676 325.952 458.686 323.701 464.247C321.851 469.378 324.188 474.968 327.6 478.866C333.708 486.162 342.941 490.232 352.231 491.536C360.503 492.654 369.234 491.737 376.804 488.096C383.083 484.872 387.8 478.709 388.99 471.729C389.908 467.558 390.151 463.272 390.768 459.059C389.822 457.941 388.646 459.603 387.642 459.804C382.811 461.839 378.367 465.064 373.162 466.038C367.958 466.382 363.313 463.573 358.611 461.839C352.446 459.288 346.41 456.063 339.758 454.988C339.057 454.926 338.339 454.907 337.636 454.931ZM296.332 381.963C295.328 381.963 294.282 382.164 293.235 382.393C291.01 382.941 288.833 383.669 286.726 384.572C284.576 385.446 282.54 386.392 280.891 387.152C279.863 387.621 278.82 388.061 277.766 388.47C276.866 388.612 275.945 388.44 275.157 387.983C274.268 387.453 273.436 386.535 273.135 384.328L269.264 384.873C269.709 387.997 271.272 390.176 273.135 391.323C274.999 392.455 276.978 392.612 278.555 392.283C279.773 392.025 280.848 391.452 282.511 390.692C284.175 389.932 286.167 389.001 288.203 388.169C290.253 387.338 292.332 386.593 294.081 386.191C295.257 385.853 296.497 385.808 297.694 386.062C299.701 386.922 300.418 387.926 300.776 388.628C301.135 389.345 301.207 389.588 301.207 389.588L304.977 388.728C304.977 388.728 305.006 388.384 304.26 386.894C303.16 384.881 301.382 383.322 299.242 382.494C298.318 382.107 297.334 381.926 296.332 381.963ZM335.672 438.391C335.391 438.398 335.115 438.466 334.862 438.589C334.61 438.713 334.387 438.89 334.21 439.107C334.21 439.107 332.46 441.229 330.109 443.336C327.744 445.457 324.661 447.349 323.041 447.392C321.436 447.435 318.54 445.701 316.303 443.665C314.081 441.659 312.475 439.595 312.475 439.595C312.325 439.375 312.131 439.188 311.906 439.046C311.68 438.903 311.428 438.809 311.165 438.768C310.902 438.727 310.633 438.74 310.375 438.807C310.117 438.874 309.875 438.993 309.665 439.157C309.455 439.321 309.281 439.526 309.153 439.76C309.026 439.994 308.947 440.252 308.923 440.517C308.899 440.782 308.929 441.05 309.013 441.303C309.096 441.556 309.23 441.789 309.407 441.988C309.407 441.988 311.185 444.282 313.694 446.56C316.203 448.854 319.385 451.391 323.156 451.29C326.869 451.176 330.095 448.567 332.704 446.245C335.313 443.909 337.22 441.587 337.22 441.587C337.46 441.299 337.612 440.948 337.658 440.576C337.703 440.204 337.64 439.827 337.477 439.49C337.314 439.153 337.056 438.87 336.736 438.675C336.416 438.48 336.047 438.381 335.672 438.391ZM306.253 148.026C294.97 148.456 284.533 153.301 274.397 157.83C265.777 161.907 256.84 165.277 247.673 167.906C238.57 170.428 229.036 172.979 221.667 179.2C218.484 181.78 216.563 185.492 214.083 188.688C209.652 195.654 207.66 203.981 207.531 212.165C208.047 220.908 210.627 229.364 212.921 237.763C218.197 255.865 224.491 273.637 230.082 291.639C235.329 308.279 240.161 325.235 248.634 340.599C251.458 346.246 253.652 352.18 256.304 357.885C256.691 358.845 257.05 360.149 258.34 360.034C260.29 359.848 261.824 358.372 263.616 357.67C275.487 351.736 288.562 348.482 301.68 346.934C311.83 345.874 322.181 345.816 332.231 347.723C342.554 350.059 352.546 353.814 362.223 358.085C367.385 360.55 372.531 363.073 377.822 365.223C378.51 365.796 379.757 366.054 380.116 364.993C383.255 360.307 386.84 355.892 389.678 351.005C396.775 335.784 397.162 318.341 404.56 303.263C409.692 292.929 417.348 284.1 422.71 273.91C425.219 270.097 428.889 267.216 431.14 263.218C437.405 253.615 442.322 243.152 446.193 232.388C447.656 228.189 448.659 223.616 447.484 219.216C446.623 214.931 444.588 211.047 442.925 207.062C442.061 203.733 440.718 200.547 438.939 197.603C433.104 187.914 423.599 181.135 413.95 175.588C398.968 167.117 382.467 161.7 365.908 157.242C348.341 152.58 330.383 149.538 312.26 148.155C310.256 148.023 308.247 147.975 306.239 148.012L306.253 148.026ZM293.508 156.697C289.766 159.879 288.304 164.853 286.798 169.367C284.39 177.494 283.028 186.036 283.83 194.521C284.748 209.742 286.655 224.906 288.562 240.027C291.142 259.405 294.11 278.74 298.267 297.845C298.64 300.21 299.185 302.819 298.984 305.155C297.336 302.647 296.375 299.665 295.285 296.842C291.701 285.877 289.092 274.641 286.626 263.39C282.215 243.026 279.52 222.329 278.569 201.516C278.21 189.433 278.512 176.777 283.873 165.67C285.565 162.445 287.587 159.077 290.755 157.113C291.712 156.595 292.794 156.352 293.88 156.411L293.508 156.697ZM241.867 173.381C243.702 173.381 243.86 175.674 244.276 176.992C248.089 188.43 250.326 200.326 254.01 211.806C256.505 221.094 257.422 230.754 258.426 240.328C259.817 255.22 259.974 270.212 261.953 285.046C262.325 287.898 263.128 290.693 263.659 293.502C263.802 294.477 262.813 294.219 262.469 293.703C260.347 291.41 259.845 288.113 258.942 285.218C256.648 275.974 255.473 266.514 254.154 257.097C251.659 238.236 250.039 219.259 246.569 200.555C244.304 191.784 241.466 183.141 239.975 174.212C240.061 173.481 241.308 173.524 241.867 173.381ZM214.24 199.71C217.523 200.498 219.473 203.551 221.581 205.93C227.315 213.598 229.322 223.186 231.545 232.345C235.602 250.476 237.939 268.936 241.939 287.096C243.817 296.641 246.139 306.101 249.207 315.345C249.408 316.076 249.709 317.252 249.752 317.782C246.412 311.619 244.118 304.94 241.652 298.404C233.079 274.039 229.853 248.297 223.014 223.459C221.107 216.608 218.599 209.843 214.47 203.995C213.796 202.748 213.323 201.057 213.939 199.738C214.025 199.681 214.14 199.695 214.226 199.71H214.24ZM395.542 388.843C393.592 388.943 391.097 390.405 391.585 392.67C392.933 395.78 396.373 397.07 399.126 398.632C405.449 401.714 412.574 402.789 418.595 406.458C419.914 407.318 420.731 409.281 419.513 410.571C416.932 414.384 412.775 416.878 409.147 419.658C403.814 423.471 398.008 426.968 393.994 432.257C393.047 433.79 393.406 436.083 395.169 436.843C396.732 437.975 398.653 437.101 400.015 436.112C407.441 431.898 414.28 426.738 421.205 421.751C425.792 418.311 430.437 414.914 434.48 410.858C435.699 408.923 434.05 406.916 432.789 405.54C428.875 401.441 423.9 398.575 418.954 395.938C412.396 392.509 405.344 390.111 398.051 388.857C397.216 388.794 396.377 388.789 395.542 388.843ZM233.881 389.259C226.326 391.165 219.588 395.278 212.749 398.89C206.656 402.373 200.506 406.013 195.473 410.958C193.79 412.885 192.908 415.382 193.008 417.938C193.939 419.5 195.875 419.945 197.323 420.891C209.538 427.226 222.197 432.686 235.028 437.631C236.921 438.233 238.828 439.251 240.849 439.179C243.114 438.893 245.279 436.241 243.903 434.062C241.81 430.58 237.881 428.888 234.584 426.81C226.742 422.467 218.039 419.472 211.129 413.653C210.47 412.363 212.477 411.818 213.165 411.073C221.036 405.426 230.785 402.588 237.724 395.637C239 394.347 240.075 391.939 238.412 390.52C237.179 389.459 235.458 389.259 233.881 389.259ZM350.224 400.61C344.059 401.011 338.253 406.802 339.127 413.165C339.586 416.892 340.403 420.704 342.396 423.915C344.116 426.48 347.127 428 350.224 428.028C354.138 428.458 358.682 427.168 360.632 423.456C362.596 420.074 363.671 416.089 363.571 412.176C363.026 405.583 356.876 400.08 350.224 400.61ZM285.852 400.753C279.2 401.155 274.282 407.991 274.813 414.412C274.97 420.776 279.329 427.34 285.78 428.673C290.827 429.519 295.959 425.95 297.293 421.077C299.085 416.061 299.185 410.156 296.662 405.368C294.411 401.8 289.809 400.682 285.852 400.753ZM287.458 410.127C290.913 411.03 291.673 416.863 288.103 418.11C286.081 418.597 284.676 416.39 284.748 414.613C284.633 412.793 285.465 410.5 287.458 410.127ZM351.069 412.162C352.46 412.162 354.31 413.194 353.793 414.842C353.607 417.308 350.711 419.615 348.389 418.096C346.496 417.078 345.923 413.839 348.102 412.807C349.019 412.341 350.041 412.119 351.069 412.162ZM300.633 454.83C292.705 455.576 285.666 459.646 278.526 462.857C274.168 465.078 269.035 467.314 264.118 465.523C258.713 463.817 253.981 460.506 248.935 458.07C247.86 457.898 248.06 459.187 248.261 459.818C249.422 467.414 250.111 475.613 254.77 482.034C259.616 488.311 267.702 490.906 275.314 491.594C286.741 492.626 298.855 489.902 307.873 482.578C312.303 478.823 316.059 473.549 316.26 467.543C316.174 462.9 312.762 459.001 308.748 457.023C306.295 455.562 303.488 454.803 300.633 454.83ZM337.622 454.945C331.944 455.69 325.937 458.7 323.686 464.261C321.837 469.407 324.174 474.982 327.586 478.895C333.693 486.176 342.926 490.246 352.216 491.551C360.489 492.669 369.22 491.766 376.789 488.111C383.069 484.886 387.786 478.723 388.976 471.743C389.893 467.586 390.137 463.287 390.753 459.073C389.807 457.969 388.632 459.632 387.628 459.818C382.797 461.868 378.352 465.078 373.148 466.067C367.944 466.411 363.299 463.602 358.596 461.853C352.431 459.302 346.396 456.092 339.744 455.017C339.043 454.955 338.339 454.936 337.636 454.959L337.622 454.945Z" fill="#FFFBE8"/>
</svg>
