<svg width="640" height="640" viewBox="0 0 640 640" fill="none" xmlns="http://www.w3.org/2000/svg">
<circle cx="320" cy="320" r="320" fill="#343434"/>
<path d="M321.343 307.048C321.658 300.985 323.832 296.03 327.229 292.165V287.015H322.714C313.589 287.015 305.863 290.512 301.372 298.414H301.109V287.884H277.703V352.102H301.114V326.178C301.114 315.175 304.334 306.785 317.325 306.785C318.739 306.795 320.062 306.876 321.343 307.048Z" fill="#FFFBE8"/>
<path d="M498.594 306.814C500.538 301.138 503.691 296.083 507.791 292.027V287.01H503.285C494.155 287.01 486.439 290.508 481.924 298.405H481.671V287.885H458.25V352.103H481.671V326.178C481.671 315.175 484.9 306.785 497.891 306.785L498.594 306.814Z" fill="#FFFBE8"/>
<path d="M368.886 304.406C365.274 302.528 360.248 301.276 356.249 301.276C353.564 301.276 348.925 302.394 348.925 305.657C348.925 310.043 356.249 310.664 359.489 311.305C370.401 313.426 378.657 318.438 378.657 330.315C378.657 347.21 362.828 354.243 347.506 354.243C338.108 354.243 328.863 351.61 320.875 346.851L329.365 330.941C334.119 334.209 342.097 337.453 347.888 337.453C350.85 337.453 355.222 336.082 355.222 332.575C355.222 327.568 347.888 327.305 340.545 325.433C333.22 323.555 325.896 320.058 325.896 308.538C325.896 292.762 340.545 285.763 354.983 285.763C362.446 285.763 369.914 286.885 376.717 289.891L368.886 304.406Z" fill="#FFFBE8"/>
<path d="M578 352.102H554.589V344.96H554.331C550.212 351.343 542.09 354.219 534.384 354.219C514.814 354.219 501.059 338.318 501.059 319.914C501.059 301.53 514.57 285.749 534.121 285.749C541.708 285.749 549.696 288.501 554.584 294.129V287.884H577.99L578 352.102ZM525.248 320.053C525.248 328.185 530.791 334.444 540.298 334.444C549.816 334.444 555.334 328.194 555.334 320.053C555.334 312.165 549.816 305.533 540.298 305.533C530.791 305.538 525.248 312.165 525.248 320.053Z" fill="#FFFBE8"/>
<path d="M454.556 323.818H405.264C405.264 333.072 410.295 338.075 419.942 338.075C424.958 338.075 428.556 336.455 431.136 332.193H453.658C449.927 347.343 435.125 354.228 420.075 354.228C398.217 354.228 381.877 342.203 381.877 320.058C381.877 298.653 396.913 285.763 418.398 285.763C441.298 285.763 454.566 299.537 454.566 321.434L454.556 323.818ZM432.808 310.664C431.647 304.53 425.856 300.526 419.559 300.526C412.732 300.526 407.094 304.019 405.656 310.664H432.808Z" fill="#FFFBE8"/>
<path d="M203.236 318.935C203.212 318.381 203.174 317.841 203.131 317.292V317.282V317.272C202.605 311.315 200.637 305.739 197.297 300.703C195.806 298.458 194.101 296.417 192.194 294.588C189.409 291.907 186.184 289.69 182.548 287.937C177.078 285.323 171.034 284.005 164.584 284.005C163.953 284.005 163.294 284.014 162.63 284.038C158.1 284.244 153.719 285.104 149.601 286.618C145.449 288.118 141.832 290.101 138.874 292.481C138.272 292.958 137.618 293.546 136.916 294.191L136.409 294.688L135.716 295.424H135.721H135.726L135.401 295.744L135.243 295.916L134.417 296.785C133.805 297.473 133.222 298.161 132.678 298.835L132.673 298.825L132.654 298.806C131.521 300.182 130.475 301.606 129.706 302.887C129.185 303.708 128.674 304.554 128.187 305.4L121.436 319.05L121.445 319.059L121.092 319.752L120.346 321.262C118.865 324.258 117.279 327.244 115.506 329.709C111.555 334.042 107.088 336.164 101.345 336.164C100.944 336.164 100.533 336.145 100.112 336.121C96.6532 335.982 93.6862 335.165 91.0537 333.608C90.7718 333.44 90.4994 333.268 90.2367 333.092C88.0867 331.663 86.4383 329.828 85.2057 327.54C83.8153 324.946 83.199 322.294 83.285 319.485C83.2898 319.408 83.2946 319.341 83.2946 319.279C83.4809 314.807 85.1866 311.329 88.6218 308.324C89.4579 307.602 90.3322 306.991 91.2448 306.446C91.3738 306.37 91.5028 306.298 91.6318 306.231C94.1831 304.841 97.088 304.148 100.418 304.148L101.455 304.177C106.744 304.377 110.824 306.03 114.078 309.255L124.283 290.933C121.842 289.299 119.085 287.894 116.046 286.752C115.932 286.709 115.812 286.661 115.693 286.623C115.33 286.494 114.971 286.36 114.599 286.241C111.369 285.161 107.981 284.497 104.494 284.196C104.408 284.182 104.312 284.172 104.226 284.162C103.691 284.129 103.146 284.062 102.611 284.038C102.028 284.014 101.441 284.005 100.867 284H100.538C94.121 284.024 88.1583 285.338 82.7069 287.942C76.6009 290.885 71.6511 295.17 67.9818 300.694C64.322 306.217 62.3249 312.347 62.0382 318.926C62.0143 319.489 62 320.048 62 320.598C61.9952 329.8 65.3492 337.893 72.019 344.687C78.9802 351.816 88.0341 355.657 98.9036 356.111C99.6011 356.14 100.289 356.159 100.977 356.159C107.126 356.159 112.816 355.065 117.919 352.876C119.195 352.332 120.432 351.692 121.698 350.98C122.386 350.583 123.036 350.163 123.681 349.714L124.159 349.393L124.962 348.844C125.927 348.151 126.83 347.401 127.709 346.603L128.015 346.312C128.531 345.82 129.047 345.323 129.534 344.812L131.364 342.743L132.061 341.868L132.386 341.391L132.711 340.922C135.43 336.355 144.278 319.733 144.278 319.733V319.7L144.804 318.687L145.243 317.894C146.548 315.519 147.489 313.832 148.736 312.06L148.769 312.007C151.679 307.789 156.681 304.783 162.577 304.277C172.467 303.426 181.134 309.924 181.932 318.792C182.725 327.659 175.348 335.538 165.458 336.393C163.399 336.57 161.397 336.431 159.51 336.016L159.462 336.035C152.204 334.525 147.584 329.231 145.305 326.866L135.788 344.367C135.788 344.367 138.745 347.349 140.771 348.839C142.802 350.325 145.425 351.787 147.517 352.695C152.596 354.864 158.119 356.164 164.221 356.164C164.928 356.164 164.784 356.164 165.52 356.135C176.38 355.681 186.06 351.52 193.04 344.391C199.653 337.621 203.241 329.891 203.274 320.741V320.469C203.269 319.962 203.255 319.451 203.236 318.935Z" fill="#FFFBE8"/>
<path d="M239.643 354.272C234.707 354.272 230.231 353.698 226.212 352.552C222.194 351.405 218.764 349.594 215.921 347.11C213.069 344.625 210.871 341.462 209.323 337.626C207.775 333.789 207.001 329.164 207.001 323.775V287.87H229.586V323.488C229.586 327.526 230.551 330.45 232.476 332.275C234.406 334.105 236.857 335.017 239.829 335.017C242.868 335.017 245.333 334.167 247.235 332.461C249.127 330.755 250.082 327.927 250.082 323.952V287.87H272.667V323.302C272.667 328.883 271.874 333.627 270.292 337.53C268.711 341.439 266.48 344.63 263.608 347.115C260.722 349.599 257.249 351.405 253.164 352.556C249.079 353.698 244.573 354.272 239.643 354.272Z" fill="#FFFBE8"/>
</svg>
