<svg width="640" height="640" viewBox="0 0 640 640" fill="none" xmlns="http://www.w3.org/2000/svg">
<circle cx="320" cy="320" r="320" fill="#343434"/>
<path fill-rule="evenodd" clip-rule="evenodd" d="M319.999 406.184C367.596 406.184 406.181 367.599 406.181 320.002C406.181 272.405 367.596 233.82 319.999 233.82C272.402 233.82 233.817 272.405 233.817 320.002C233.817 367.599 272.402 406.184 319.999 406.184ZM319.999 377.457C351.73 377.457 377.454 351.733 377.454 320.002C377.454 288.271 351.73 262.548 319.999 262.548C288.268 262.548 262.545 288.271 262.545 320.002C262.545 351.733 288.268 377.457 319.999 377.457Z" fill="#FFFBE8"/>
<path d="M406.181 219.456C398.248 219.456 391.817 225.887 391.817 233.82C391.817 241.752 398.248 248.183 406.181 248.183C414.114 248.183 420.545 241.752 420.545 233.82C420.545 225.887 414.114 219.456 406.181 219.456Z" fill="#FFFBE8"/>
<path fill-rule="evenodd" clip-rule="evenodd" d="M171.393 209.056C162 227.491 162 251.625 162 299.891V340.109C162 388.375 162 412.509 171.393 430.943C179.656 447.16 192.84 460.344 209.056 468.606C227.491 478 251.625 478 299.891 478H340.109C388.375 478 412.509 478 430.943 468.606C447.16 460.344 460.344 447.16 468.606 430.943C478 412.509 478 388.375 478 340.109V299.891C478 251.625 478 227.491 468.606 209.056C460.344 192.84 447.16 179.656 430.943 171.393C412.509 162 388.375 162 340.109 162H299.891C251.625 162 227.491 162 209.056 171.393C192.84 179.656 179.656 192.84 171.393 209.056ZM340.109 190.727H299.891C275.284 190.727 258.556 190.75 245.626 191.806C233.032 192.835 226.591 194.7 222.098 196.989C211.287 202.498 202.498 211.287 196.989 222.098C194.7 226.591 192.835 233.032 191.806 245.626C190.75 258.556 190.727 275.284 190.727 299.891V340.109C190.727 364.717 190.75 381.443 191.806 394.373C192.835 406.969 194.7 413.41 196.989 417.903C202.498 428.713 211.287 437.502 222.098 443.01C226.591 445.3 233.032 447.166 245.626 448.194C258.556 449.25 275.284 449.273 299.891 449.273H340.109C364.717 449.273 381.443 449.25 394.373 448.194C406.969 447.166 413.41 445.3 417.903 443.01C428.713 437.502 437.502 428.713 443.01 417.903C445.3 413.41 447.166 406.969 448.194 394.373C449.25 381.443 449.273 364.717 449.273 340.109V299.891C449.273 275.284 449.25 258.556 448.194 245.626C447.166 233.032 445.3 226.591 443.01 222.098C437.502 211.287 428.713 202.498 417.903 196.989C413.41 194.7 406.969 192.835 394.373 191.806C381.443 190.75 364.717 190.727 340.109 190.727Z" fill="#FFFBE8"/>
</svg>
