<svg width="640" height="640" viewBox="0 0 640 640" fill="none" xmlns="http://www.w3.org/2000/svg">
<circle cx="320" cy="320" r="320" fill="#343434"/>
<path fill-rule="evenodd" clip-rule="evenodd" d="M317.557 123C209.66 123 123 210.363 123 319.182C123 399.953 170.418 467.541 239.092 498.868C239.092 462.078 238.836 466.82 266.869 347.193C251.464 316.105 263.441 264.777 297.936 264.777C345.807 264.777 313.282 335.751 307.747 363.681C302.841 385.115 319.192 401.609 338.814 401.609C376.421 401.609 400.928 353.79 400.928 297.751C400.928 254.882 371.516 223.558 320.828 223.558C230.7 223.558 207.848 323.931 239.092 355.437C246.953 367.336 239.092 367.893 239.092 383.467C233.635 399.935 190.039 375.998 190.039 314.238C190.039 258.179 235.822 192.248 329.003 192.248C402.563 192.248 451.616 246.642 451.616 304.35C451.616 381.823 409.103 437.883 346.989 437.883C325.733 437.883 306.111 426.332 299.571 413.142C287.692 459.348 285.288 482.773 266.869 508.756C284.855 513.703 302.841 517 322.463 517C430.359 517 517 429.637 517 320.837C512.114 210.368 425.454 123 317.557 123Z" fill="#FFFBE8"/>
</svg>
